<svg width="300" height="66" viewBox="0 0 300 66" fill="none" xmlns="http://www.w3.org/2000/svg">
<g clip-path="url(#clip0_16_60)">
<rect x="3" y="3" width="60" height="60" rx="7.2" fill="white"/>
<rect width="30" height="60" transform="translate(3 3)" fill="url(#paint0_linear_16_60)"/>
<rect width="30" height="60" transform="translate(33 3)" fill="url(#paint1_linear_16_60)"/>
</g>
<rect id="frame" x="3" y="3" width="60" height="60" rx="7.2" stroke="black" stroke-width="6" stroke-linejoin="round"/>
<style>
@media (prefers-color-scheme: dark) {
  #name {
    fill: white;
  }
  #frame {
    stroke: dimgray;
  }
}
</style>
<path id="name" d="M90.04 39.02C90.04 39.98 90.2133 40.7933 90.56 41.46C90.9067 42.1267 91.36 42.6733 91.92 43.1C92.5067 43.5 93.1867 43.8067 93.96 44.02C94.7333 44.2067 95.5333 44.3 96.36 44.3C96.92 44.3 97.52 44.26 98.16 44.18C98.8 44.0733 99.4 43.8867 99.96 43.62C100.52 43.3533 100.987 42.9933 101.36 42.54C101.733 42.06 101.92 41.46 101.92 40.74C101.92 39.9667 101.667 39.34 101.16 38.86C100.68 38.38 100.04 37.98 99.24 37.66C98.44 37.34 97.5333 37.06 96.52 36.82C95.5067 36.58 94.48 36.3133 93.44 36.02C92.3733 35.7533 91.3333 35.4333 90.32 35.06C89.3067 34.66 88.4 34.1533 87.6 33.54C86.8 32.9267 86.1467 32.1667 85.64 31.26C85.16 30.3267 84.92 29.2067 84.92 27.9C84.92 26.4333 85.2267 25.1667 85.84 24.1C86.48 23.0067 87.3067 22.1 88.32 21.38C89.3333 20.66 90.48 20.1267 91.76 19.78C93.04 19.4333 94.32 19.26 95.6 19.26C97.0933 19.26 98.52 19.4333 99.88 19.78C101.267 20.1 102.493 20.6333 103.56 21.38C104.627 22.1267 105.467 23.0867 106.08 24.26C106.72 25.4067 107.04 26.8067 107.04 28.46H100.96C100.907 27.6067 100.72 26.9 100.4 26.34C100.107 25.78 99.7067 25.34 99.2 25.02C98.6933 24.7 98.1067 24.4733 97.44 24.34C96.8 24.2067 96.0933 24.14 95.32 24.14C94.8133 24.14 94.3067 24.1933 93.8 24.3C93.2933 24.4067 92.8267 24.5933 92.4 24.86C92 25.1267 91.6667 25.46 91.4 25.86C91.1333 26.26 91 26.7667 91 27.38C91 27.94 91.1067 28.3933 91.32 28.74C91.5333 29.0867 91.9467 29.4067 92.56 29.7C93.2 29.9933 94.0667 30.2867 95.16 30.58C96.28 30.8733 97.7333 31.2467 99.52 31.7C100.053 31.8067 100.787 32.0067 101.72 32.3C102.68 32.5667 103.627 33.0067 104.56 33.62C105.493 34.2333 106.293 35.06 106.96 36.1C107.653 37.1133 108 38.42 108 40.02C108 41.3267 107.747 42.54 107.24 43.66C106.733 44.78 105.973 45.7533 104.96 46.58C103.973 47.38 102.733 48.0067 101.24 48.46C99.7733 48.9133 98.0667 49.14 96.12 49.14C94.5467 49.14 93.0133 48.94 91.52 48.54C90.0533 48.1667 88.7467 47.5667 87.6 46.74C86.48 45.9133 85.5867 44.86 84.92 43.58C84.2533 42.3 83.9333 40.78 83.96 39.02H90.04ZM110.897 34.18C110.977 32.8467 111.31 31.74 111.897 30.86C112.483 29.98 113.23 29.2733 114.137 28.74C115.043 28.2067 116.057 27.8333 117.177 27.62C118.323 27.38 119.47 27.26 120.617 27.26C121.657 27.26 122.71 27.34 123.777 27.5C124.843 27.6333 125.817 27.9133 126.697 28.34C127.577 28.7667 128.297 29.3667 128.857 30.14C129.417 30.8867 129.697 31.8867 129.697 33.14V43.9C129.697 44.8333 129.75 45.7267 129.857 46.58C129.963 47.4333 130.15 48.0733 130.417 48.5H124.657C124.55 48.18 124.457 47.86 124.377 47.54C124.323 47.1933 124.283 46.8467 124.257 46.5C123.35 47.4333 122.283 48.0867 121.057 48.46C119.83 48.8333 118.577 49.02 117.297 49.02C116.31 49.02 115.39 48.9 114.537 48.66C113.683 48.42 112.937 48.0467 112.297 47.54C111.657 47.0333 111.15 46.3933 110.777 45.62C110.43 44.8467 110.257 43.9267 110.257 42.86C110.257 41.6867 110.457 40.7267 110.857 39.98C111.283 39.2067 111.817 38.5933 112.457 38.14C113.123 37.6867 113.87 37.3533 114.697 37.14C115.55 36.9 116.403 36.7133 117.257 36.58C118.11 36.4467 118.95 36.34 119.777 36.26C120.603 36.18 121.337 36.06 121.977 35.9C122.617 35.74 123.123 35.5133 123.497 35.22C123.87 34.9 124.043 34.4467 124.017 33.86C124.017 33.2467 123.91 32.7667 123.697 32.42C123.51 32.0467 123.243 31.7667 122.897 31.58C122.577 31.3667 122.19 31.2333 121.737 31.18C121.31 31.1 120.843 31.06 120.337 31.06C119.217 31.06 118.337 31.3 117.697 31.78C117.057 32.26 116.683 33.06 116.577 34.18H110.897ZM124.017 38.38C123.777 38.5933 123.47 38.7667 123.097 38.9C122.75 39.0067 122.363 39.1 121.937 39.18C121.537 39.26 121.11 39.3267 120.657 39.38C120.203 39.4333 119.75 39.5 119.297 39.58C118.87 39.66 118.443 39.7667 118.017 39.9C117.617 40.0333 117.257 40.22 116.937 40.46C116.643 40.6733 116.403 40.9533 116.217 41.3C116.03 41.6467 115.937 42.0867 115.937 42.62C115.937 43.1267 116.03 43.5533 116.217 43.9C116.403 44.2467 116.657 44.5267 116.977 44.74C117.297 44.9267 117.67 45.06 118.097 45.14C118.523 45.22 118.963 45.26 119.417 45.26C120.537 45.26 121.403 45.0733 122.017 44.7C122.63 44.3267 123.083 43.8867 123.377 43.38C123.67 42.8467 123.843 42.3133 123.897 41.78C123.977 41.2467 124.017 40.82 124.017 40.5V38.38ZM134.265 27.82H139.625V30.62H139.705C140.452 29.5533 141.345 28.7267 142.385 28.14C143.452 27.5533 144.665 27.26 146.025 27.26C147.332 27.26 148.519 27.5133 149.585 28.02C150.679 28.5267 151.505 29.42 152.065 30.7C152.679 29.7933 153.505 28.9933 154.545 28.3C155.612 27.6067 156.865 27.26 158.305 27.26C159.399 27.26 160.412 27.3933 161.345 27.66C162.279 27.9267 163.079 28.3533 163.745 28.94C164.412 29.5267 164.932 30.3 165.305 31.26C165.679 32.1933 165.865 33.3267 165.865 34.66V48.5H160.185V36.78C160.185 36.0867 160.159 35.4333 160.105 34.82C160.052 34.2067 159.905 33.6733 159.665 33.22C159.425 32.7667 159.065 32.4067 158.585 32.14C158.132 31.8733 157.505 31.74 156.705 31.74C155.905 31.74 155.252 31.9 154.745 32.22C154.265 32.5133 153.879 32.9133 153.585 33.42C153.319 33.9 153.132 34.46 153.025 35.1C152.945 35.7133 152.905 36.34 152.905 36.98V48.5H147.225V36.9C147.225 36.2867 147.212 35.6867 147.185 35.1C147.159 34.4867 147.039 33.9267 146.825 33.42C146.639 32.9133 146.305 32.5133 145.825 32.22C145.372 31.9 144.692 31.74 143.785 31.74C143.519 31.74 143.159 31.8067 142.705 31.94C142.279 32.0467 141.852 32.2733 141.425 32.62C141.025 32.94 140.679 33.42 140.385 34.06C140.092 34.6733 139.945 35.4867 139.945 36.5V48.5H134.265V27.82ZM180.795 44.78C181.729 44.78 182.502 44.5933 183.115 44.22C183.755 43.8467 184.262 43.3667 184.635 42.78C185.035 42.1667 185.315 41.46 185.475 40.66C185.635 39.86 185.715 39.0467 185.715 38.22C185.715 37.3933 185.622 36.58 185.435 35.78C185.275 34.98 184.995 34.2733 184.595 33.66C184.195 33.02 183.675 32.5133 183.035 32.14C182.422 31.74 181.662 31.54 180.755 31.54C179.822 31.54 179.035 31.74 178.395 32.14C177.782 32.5133 177.275 33.0067 176.875 33.62C176.502 34.2333 176.235 34.94 176.075 35.74C175.915 36.54 175.835 37.3667 175.835 38.22C175.835 39.0467 175.915 39.86 176.075 40.66C176.262 41.46 176.542 42.1667 176.915 42.78C177.315 43.3667 177.835 43.8467 178.475 44.22C179.115 44.5933 179.889 44.78 180.795 44.78ZM170.355 27.82H175.755V30.46H175.835C176.529 29.34 177.409 28.5267 178.475 28.02C179.542 27.5133 180.715 27.26 181.995 27.26C183.622 27.26 185.022 27.5667 186.195 28.18C187.369 28.7933 188.342 29.6067 189.115 30.62C189.889 31.6333 190.462 32.82 190.835 34.18C191.209 35.5133 191.395 36.9133 191.395 38.38C191.395 39.7667 191.209 41.1 190.835 42.38C190.462 43.66 189.889 44.7933 189.115 45.78C188.369 46.7667 187.422 47.5533 186.275 48.14C185.155 48.7267 183.835 49.02 182.315 49.02C181.035 49.02 179.849 48.7667 178.755 48.26C177.689 47.7267 176.809 46.9533 176.115 45.94H176.035V55.74H170.355V27.82ZM194.968 19.94H200.648V48.5H194.968V19.94ZM219.041 35.94C218.774 34.5 218.294 33.4067 217.601 32.66C216.934 31.9133 215.908 31.54 214.521 31.54C213.614 31.54 212.854 31.7 212.241 32.02C211.654 32.3133 211.174 32.6867 210.801 33.14C210.454 33.5933 210.201 34.0733 210.041 34.58C209.908 35.0867 209.828 35.54 209.801 35.94H219.041ZM209.801 39.54C209.881 41.38 210.348 42.7133 211.201 43.54C212.054 44.3667 213.281 44.78 214.881 44.78C216.028 44.78 217.014 44.5 217.841 43.94C218.668 43.3533 219.174 42.74 219.361 42.1H224.361C223.561 44.58 222.334 46.3533 220.681 47.42C219.028 48.4867 217.028 49.02 214.681 49.02C213.054 49.02 211.588 48.7667 210.281 48.26C208.974 47.7267 207.868 46.98 206.961 46.02C206.054 45.06 205.348 43.9133 204.841 42.58C204.361 41.2467 204.121 39.78 204.121 38.18C204.121 36.6333 204.374 35.1933 204.881 33.86C205.388 32.5267 206.108 31.38 207.041 30.42C207.974 29.4333 209.081 28.66 210.361 28.1C211.668 27.54 213.108 27.26 214.681 27.26C216.441 27.26 217.974 27.6067 219.281 28.3C220.588 28.9667 221.654 29.8733 222.481 31.02C223.334 32.1667 223.948 33.4733 224.321 34.94C224.694 36.4067 224.828 37.94 224.721 39.54H209.801ZM242.77 38.1C242.77 37.2467 242.69 36.4333 242.53 35.66C242.37 34.86 242.09 34.1667 241.69 33.58C241.316 32.9667 240.823 32.4733 240.21 32.1C239.596 31.7267 238.823 31.54 237.89 31.54C236.956 31.54 236.17 31.7267 235.53 32.1C234.89 32.4733 234.37 32.9667 233.97 33.58C233.596 34.1933 233.316 34.9 233.13 35.7C232.97 36.4733 232.89 37.2867 232.89 38.14C232.89 38.94 232.983 39.74 233.17 40.54C233.356 41.34 233.65 42.06 234.05 42.7C234.476 43.3133 234.996 43.82 235.61 44.22C236.25 44.5933 237.01 44.78 237.89 44.78C238.823 44.78 239.596 44.5933 240.21 44.22C240.85 43.8467 241.356 43.3533 241.73 42.74C242.103 42.1 242.37 41.38 242.53 40.58C242.69 39.78 242.77 38.9533 242.77 38.1ZM242.85 45.86H242.77C242.103 46.98 241.223 47.7933 240.13 48.3C239.063 48.78 237.85 49.02 236.49 49.02C234.943 49.02 233.583 48.7267 232.41 48.14C231.236 47.5267 230.263 46.7133 229.49 45.7C228.743 44.66 228.17 43.4733 227.77 42.14C227.396 40.8067 227.21 39.42 227.21 37.98C227.21 36.5933 227.396 35.26 227.77 33.98C228.17 32.6733 228.743 31.5267 229.49 30.54C230.263 29.5533 231.223 28.7667 232.37 28.18C233.516 27.5667 234.85 27.26 236.37 27.26C237.596 27.26 238.756 27.5267 239.85 28.06C240.97 28.5667 241.85 29.3267 242.49 30.34H242.57V19.94H248.25V48.5H242.85V45.86ZM287.436 38.18C287.436 41.8333 286.462 44.58 284.516 46.42C282.569 48.2333 279.796 49.14 276.196 49.14C272.516 49.14 269.636 48.2733 267.556 46.54C265.502 44.78 264.476 41.9933 264.476 38.18V19.94H268.276V38.18C268.276 40.74 268.956 42.6867 270.316 44.02C271.676 45.3267 273.636 45.98 276.196 45.98C278.622 45.98 280.462 45.3267 281.716 44.02C282.996 42.6867 283.636 40.74 283.636 38.18V19.94H287.436V38.18ZM293.663 19.94H297.463V48.5H293.663V19.94Z" fill="black"/>
<defs>
<linearGradient id="paint0_linear_16_60" x1="15" y1="0" x2="15" y2="60" gradientUnits="userSpaceOnUse">
<stop/>
<stop offset="1" stop-color="#666666"/>
</linearGradient>
<linearGradient id="paint1_linear_16_60" x1="15" y1="0" x2="15" y2="60" gradientUnits="userSpaceOnUse">
<stop stop-color="white"/>
<stop offset="1" stop-color="#D2D2D2"/>
</linearGradient>
<clipPath id="clip0_16_60">
<rect x="3" y="3" width="60" height="60" rx="7.2" fill="white"/>
</clipPath>
</defs>
</svg>
